<svg xmlns="http://www.w3.org/2000/svg" width="123" height="18" viewBox="0 0 123 18">
  <g id="Group_905300" data-name="Group 905300" transform="translate(-320 -2823)">
    <path id="Polygon_1" data-name="Polygon 1" d="M8.649,1.38a1,1,0,0,1,1.7,0l2.257,3.66a1,1,0,0,0,.617.447l4.186,1.006a1,1,0,0,1,.526,1.622l-2.789,3.26a1,1,0,0,0-.237.728l.333,4.275a1,1,0,0,1-1.377,1L9.88,15.742a1,1,0,0,0-.761,0l-3.987,1.64a1,1,0,0,1-1.377-1L4.088,12.1a1,1,0,0,0-.237-.728L1.062,8.116a1,1,0,0,1,.526-1.622L5.774,5.488a1,1,0,0,0,.617-.447Z" transform="translate(320 2823)" fill="#ff7900"/>
    <path id="Polygon_1-2" data-name="Polygon 1" d="M8.649,1.38a1,1,0,0,1,1.7,0l2.257,3.66a1,1,0,0,0,.617.447l4.186,1.006a1,1,0,0,1,.526,1.622l-2.789,3.26a1,1,0,0,0-.237.728l.333,4.275a1,1,0,0,1-1.377,1L9.88,15.742a1,1,0,0,0-.761,0l-3.987,1.64a1,1,0,0,1-1.377-1L4.088,12.1a1,1,0,0,0-.237-.728L1.062,8.116a1,1,0,0,1,.526-1.622L5.774,5.488a1,1,0,0,0,.617-.447Z" transform="translate(346 2823)" fill="#ff7900"/>
    <path id="Polygon_1-3" data-name="Polygon 1" d="M8.649,1.38a1,1,0,0,1,1.7,0l2.257,3.66a1,1,0,0,0,.617.447l4.186,1.006a1,1,0,0,1,.526,1.622l-2.789,3.26a1,1,0,0,0-.237.728l.333,4.275a1,1,0,0,1-1.377,1L9.88,15.742a1,1,0,0,0-.761,0l-3.987,1.64a1,1,0,0,1-1.377-1L4.088,12.1a1,1,0,0,0-.237-.728L1.062,8.116a1,1,0,0,1,.526-1.622L5.774,5.488a1,1,0,0,0,.617-.447Z" transform="translate(372 2823)" fill="#a4a4b8"/>
    <path id="Polygon_1-4" data-name="Polygon 1" d="M8.649,1.38a1,1,0,0,1,1.7,0l2.257,3.66a1,1,0,0,0,.617.447l4.186,1.006a1,1,0,0,1,.526,1.622l-2.789,3.26a1,1,0,0,0-.237.728l.333,4.275a1,1,0,0,1-1.377,1L9.88,15.742a1,1,0,0,0-.761,0l-3.987,1.64a1,1,0,0,1-1.377-1L4.088,12.1a1,1,0,0,0-.237-.728L1.062,8.116a1,1,0,0,1,.526-1.622L5.774,5.488a1,1,0,0,0,.617-.447Z" transform="translate(398 2823)" fill="#a4a4b8"/>
    <path id="Polygon_1-5" data-name="Polygon 1" d="M8.649,1.38a1,1,0,0,1,1.7,0l2.257,3.66a1,1,0,0,0,.617.447l4.186,1.006a1,1,0,0,1,.526,1.622l-2.789,3.26a1,1,0,0,0-.237.728l.333,4.275a1,1,0,0,1-1.377,1L9.88,15.742a1,1,0,0,0-.761,0l-3.987,1.64a1,1,0,0,1-1.377-1L4.088,12.1a1,1,0,0,0-.237-.728L1.062,8.116a1,1,0,0,1,.526-1.622L5.774,5.488a1,1,0,0,0,.617-.447Z" transform="translate(424 2823)" fill="#a4a4b8"/>
  </g>
</svg>
