<svg width="17" height="17" viewBox="0 0 17 17" fill="none" xmlns="http://www.w3.org/2000/svg">
<g clip-path="url(#clip0_343_5)">
<path d="M10.0575 8.48613L16.6769 15.1058C17.1077 15.5364 17.1077 16.2326 16.6769 16.6631C16.2463 17.0937 15.5501 17.0937 15.1196 16.6631L8.4999 10.0435L1.88044 16.6631C1.44966 17.0937 0.753669 17.0937 0.323088 16.6631C-0.107696 16.2326 -0.107696 15.5364 0.323088 15.1058L6.94255 8.48613L0.323088 1.86646C-0.107696 1.43588 -0.107696 0.739692 0.323088 0.30911C0.537672 0.0943235 0.819819 -0.0135741 1.10176 -0.0135741C1.38371 -0.0135741 1.66566 0.0943235 1.88044 0.30911L8.4999 6.92877L15.1196 0.30911C15.3344 0.0943235 15.6163 -0.0135741 15.8982 -0.0135741C16.1802 -0.0135741 16.4621 0.0943235 16.6769 0.30911C17.1077 0.739692 17.1077 1.43588 16.6769 1.86646L10.0575 8.48613Z" fill="#0063FF"/>
</g>
<defs>
<clipPath id="clip0_343_5">
<rect width="17" height="17" fill="white" transform="matrix(1 0 0 -1 0 17)"/>
</clipPath>
</defs>
</svg>
