<svg xmlns="http://www.w3.org/2000/svg" width="24.889" height="24.889" viewBox="0 0 24.889 24.889">
  <path id="pin_3_" data-name="pin (3)" d="M14.444,2A12.444,12.444,0,1,0,26.889,14.444,12.481,12.481,0,0,0,14.444,2ZM10.213,17.929a.936.936,0,0,1-.871.622.457.457,0,0,1-.373-.124A4.366,4.366,0,0,1,6.6,16.311,4.811,4.811,0,0,1,8.347,9.84l2.862-1.867a4.372,4.372,0,0,1,3.484-.5,5.088,5.088,0,0,1,2.862,2.24,4.842,4.842,0,0,1-1.742,6.471l-.373.249a.9.9,0,1,1-1-1.493l.373-.249a3.153,3.153,0,0,0,1.12-4.107A2.641,2.641,0,0,0,14.32,9.342a2.226,2.226,0,0,0-2.116.373L9.342,11.458a2.878,2.878,0,0,0-1,3.982,3.311,3.311,0,0,0,1.369,1.244A.875.875,0,0,1,10.213,17.929Zm10.329,1L17.68,20.791a4.224,4.224,0,0,1-2.364.622,3.445,3.445,0,0,1-1.12-.124,4.715,4.715,0,0,1-2.862-2.24,4.811,4.811,0,0,1,1.742-6.471l.373-.249a.984.984,0,1,1,1.12,1.618L14.2,14.2a3.188,3.188,0,0,0-1.12,4.107,2.6,2.6,0,0,0,3.733.871l2.862-1.742a3.034,3.034,0,0,0,1.12-3.982A3.311,3.311,0,0,0,19.422,12.2a.875.875,0,0,1-.5-1.244.875.875,0,0,1,1.244-.5,4.366,4.366,0,0,1,2.364,2.116A5.032,5.032,0,0,1,20.542,18.924Z" transform="translate(-2 -2)"/>
</svg>
