<svg xmlns="http://www.w3.org/2000/svg" width="18" height="22.001" viewBox="0 0 18 22.001">
  <g id="delete_1_" data-name="delete (1)" transform="translate(-3 -1)">
    <path id="Path_32926" data-name="Path 32926" d="M19,7a1,1,0,0,0-1,1V19.191A1.92,1.92,0,0,1,15.99,21H8.01A1.92,1.92,0,0,1,6,19.191V8A1,1,0,0,0,4,8V19.191A3.918,3.918,0,0,0,8.01,23h7.98A3.918,3.918,0,0,0,20,19.191V8A1,1,0,0,0,19,7Z" fill="#0063ff"/>
    <path id="Path_32927" data-name="Path 32927" d="M20,4H16V2a1,1,0,0,0-1-1H9A1,1,0,0,0,8,2V4H4A1,1,0,0,0,4,6H20a1,1,0,0,0,0-2ZM10,4V3h4V4Z" fill="#0063ff"/>
    <path id="Path_32928" data-name="Path 32928" d="M11,17V10a1,1,0,0,0-2,0v7a1,1,0,0,0,2,0Z" fill="#0063ff"/>
    <path id="Path_32929" data-name="Path 32929" d="M15,17V10a1,1,0,0,0-2,0v7a1,1,0,0,0,2,0Z" fill="#0063ff"/>
  </g>
</svg>
