<svg id="email_6_" data-name="email (6)" xmlns="http://www.w3.org/2000/svg" width="24.645" height="16.356" viewBox="0 0 24.645 16.356">
  <path id="Path_32967" data-name="Path 32967" d="M28.645,25.41V38.826a1.478,1.478,0,0,1-1.47,1.471H5.47A1.478,1.478,0,0,1,4,38.826V25.41A1.475,1.475,0,0,1,5.47,23.94h21.7a1.475,1.475,0,0,1,1.47,1.471Z" transform="translate(-4 -23.94)" fill="#ff9b2e"/>
  <path id="Path_32968" data-name="Path 32968" d="M28.939,23.94H7.235a1.458,1.458,0,0,0-1.015.409l8.638,7.72L16.24,33.3a2.769,2.769,0,0,0,3.693,0l1.382-1.234,8.638-7.72A1.458,1.458,0,0,0,28.939,23.94Z" transform="translate(-5.764 -23.94)" fill="#fecd1a"/>
  <path id="Path_32969" data-name="Path 32969" d="M29.806,71.285a1.449,1.449,0,0,1-1.066.462H7.036a1.449,1.449,0,0,1-1.066-.462l8.689-7.765,1.382,1.234a2.769,2.769,0,0,0,3.693,0l1.382-1.234Z" transform="translate(-5.565 -55.391)" fill="#ffb32c"/>
</svg>
