<svg xmlns="http://www.w3.org/2000/svg" width="25" height="25" viewBox="0 0 25 25">
  <g id="Layer_2" data-name="Layer 2" transform="translate(0.076 0.219)">
    <g id="_01.facebook" data-name="01.facebook" transform="translate(-0.076 -0.219)">
      <circle id="background" cx="12.5" cy="12.5" r="12.5" fill="#3a559f"/>
      <path id="icon" d="M68.044,39.349l-.252,2.183a.409.409,0,0,1-.4.366H65.111L65.1,48.371a.292.292,0,0,1-.285.295H62.507a.285.285,0,0,1-.285-.3V41.9H60.513a.409.409,0,0,1-.4-.413L60.1,39.3a.41.41,0,0,1,.4-.416h1.718V36.778C62.222,34.332,63.674,33,65.8,33h1.746a.41.41,0,0,1,.406.416v1.837a.41.41,0,0,1-.406.416H66.48c-1.158,0-1.383.57-1.383,1.393v1.824h2.545a.41.41,0,0,1,.4.463Z" transform="translate(-51.477 -28.123)" fill="#fff"/>
    </g>
  </g>
</svg>
