<svg width="286" height="347" viewBox="0 0 286 347" fill="none" xmlns="http://www.w3.org/2000/svg">
<g clip-path="url(#clip0_270_143)">
<path d="M283.076 62.4081L282.995 64.1615C282.885 66.5072 282.775 68.8528 282.67 71.1992C282.542 74.0423 282.417 76.8868 282.293 79.7313C282.17 82.5752 282.045 85.4183 281.917 88.2628C281.719 92.6802 281.542 97.1735 281.37 101.518L281.206 105.624L280.973 111.477C280.818 115.366 280.662 119.255 280.506 123.144C280.417 125.331 280.328 127.517 280.238 129.703C280.094 133.249 279.948 136.794 279.807 140.341C279.717 142.664 279.621 144.988 279.525 147.311C279.382 150.783 279.234 154.372 279.102 157.903C278.594 171.554 278.227 182.041 277.911 191.903C277.857 193.583 277.802 195.262 277.748 196.942C277.52 203.933 277.284 211.163 277.122 218.274C277.092 219.575 277.068 220.875 277.043 222.175C277.027 223.011 277.011 223.846 276.994 224.681C276.986 225.017 276.979 225.352 276.971 225.686C276.953 226.43 276.935 227.173 276.926 227.917C276.924 228.153 276.931 228.389 276.938 228.627C276.943 228.768 276.947 228.91 276.948 229.054C276.955 229.533 276.953 230.013 276.95 230.492C276.944 231.397 276.937 232.3 276.924 233.204C276.916 233.702 276.919 234.202 276.921 234.701C276.923 235.016 276.924 235.332 276.923 235.65C276.923 235.749 276.925 235.847 276.927 235.947C276.93 236.06 276.933 236.172 276.931 236.285L276.928 236.648C276.926 236.799 276.925 236.952 276.923 237.103C276.92 237.303 276.914 237.502 276.908 237.701C276.902 237.92 276.896 238.14 276.892 238.36C276.888 238.624 276.912 239.015 277.048 239.367C277.091 239.523 277.172 239.659 277.273 239.784C277.25 239.943 277.224 240.102 277.202 240.261C277.189 240.363 277.175 240.464 277.162 240.565C277.124 240.856 277.093 241.147 277.062 241.439C276.852 241.53 276.641 241.62 276.433 241.716C276.201 241.821 275.96 241.922 275.73 242.039C275.548 242.114 275.346 242.212 275.301 242.231C275.103 242.316 274.907 242.403 274.712 242.497C274.261 242.718 273.802 242.924 273.349 243.138C272.612 243.486 271.876 243.833 271.14 244.183C268.42 245.47 265.702 246.757 262.982 248.045C257.228 250.771 251.472 253.496 245.716 256.221C233.233 262.133 220.749 268.044 208.265 273.957C183.232 285.812 158.197 297.667 133.169 309.534C121.166 315.224 109.168 320.922 97.1852 326.654C91.1757 329.529 85.1674 332.404 79.1729 335.308C73.1457 338.228 67.1479 341.21 61.0948 344.077C61.0802 344.084 61.0684 344.096 61.0544 344.103C60.9858 343.64 60.9157 343.178 60.8463 342.714C60.8688 342.718 60.889 342.726 60.9127 342.726C61.1433 342.726 61.3692 342.524 61.3552 342.283C61.3462 342.137 61.3434 341.995 61.3539 341.849C61.3616 341.749 61.3782 341.649 61.3876 341.548C61.4034 341.384 61.42 341.22 61.4361 341.055C61.4625 340.793 61.4757 340.528 61.4936 340.265C61.5357 339.664 61.5722 339.063 61.6102 338.462C61.6294 338.168 61.3501 337.922 61.0705 337.922C60.928 337.922 60.7889 337.98 60.6888 338.08C60.5821 338.186 60.5395 338.316 60.5297 338.462C60.5208 338.597 60.5128 338.732 60.504 338.867C60.4823 338.842 60.4643 338.816 60.439 338.795C60.413 338.446 60.3906 338.098 60.3683 337.749C60.3893 337.613 60.4072 337.478 60.4289 337.343C60.4557 337.172 60.4577 337.021 60.3658 336.866C60.3497 336.838 60.3237 336.819 60.3035 336.795C60.3002 336.737 60.2948 336.68 60.2917 336.622C60.2629 336.092 60.2402 335.563 60.2144 335.034C60.2371 334.36 60.259 333.687 60.2862 333.013C60.2925 332.848 60.218 332.698 60.1023 332.591C60.0696 331.797 60.0362 331.004 60.0063 330.21C59.9927 329.857 59.9808 329.504 59.9675 329.151C59.9524 328.751 59.7216 328.401 59.3785 328.242C59.2462 326.693 59.1078 325.144 58.9745 323.596C58.4011 316.926 57.8399 310.254 57.2626 303.584C56.0684 289.787 54.7442 276.002 53.4459 262.215C52.0978 247.899 50.7335 233.585 49.3517 219.272C48.6654 212.16 47.9702 205.049 47.2302 197.943C46.4976 190.904 45.7585 183.867 45.053 176.825C43.901 165.342 42.7443 153.86 41.5507 142.382C40.9422 136.541 40.3353 130.7 39.7238 124.861C39.2877 120.699 38.8493 116.536 38.4285 112.373C38.666 112.665 38.9035 112.957 39.1409 113.25C39.1422 113.175 39.143 113.1 39.143 113.024C39.1016 112.815 39.0873 112.601 39.0911 112.385C38.9821 112.16 38.8853 111.958 38.8519 111.712C38.8136 111.427 38.7733 111.14 38.737 110.855C38.7186 110.709 38.6976 110.564 38.69 110.419C38.6496 109.654 39.0181 108.958 39.5798 108.483C39.5448 108.436 39.5106 108.389 39.4761 108.343C39.207 107.981 38.9374 107.619 38.6683 107.257C38.7582 107.238 38.8483 107.22 38.9387 107.201C39.866 107.012 40.8056 106.879 41.7389 106.729C43.6788 106.416 45.6109 106.061 47.5445 105.708C51.1567 105.049 54.7636 104.358 58.3717 103.672C65.8236 102.256 73.2725 100.823 80.7076 99.3185C93.9412 96.6407 107.172 93.9492 120.404 91.2649C120.344 92.4854 120.227 93.7001 120.128 94.918C119.977 96.7695 119.85 98.6222 119.772 100.478C119.659 100.532 119.548 100.587 119.44 100.644C118.961 100.895 118.544 101.248 118.138 101.602C117.73 101.956 117.414 102.401 117.104 102.836C116.773 103.299 116.492 103.816 116.256 104.331C115.917 105.072 115.616 105.813 115.477 106.619C115.31 107.584 115.267 108.589 115.434 109.554C115.533 110.122 115.635 110.692 115.821 111.24C116.013 111.803 116.236 112.348 116.535 112.864C116.983 113.638 117.666 114.253 118.459 114.657C119.11 114.989 119.816 115.162 120.53 115.29C121.214 115.411 121.903 115.436 122.594 115.375C123.109 115.33 123.618 115.235 124.098 115.04C124.462 114.892 124.796 114.723 125.12 114.498C125.389 114.309 125.635 114.094 125.877 113.872C126.345 113.438 126.723 112.9 127.066 112.366C127.385 111.87 127.645 111.334 127.889 110.798C128.402 109.667 128.772 108.421 128.874 107.181C128.926 106.557 128.913 105.904 128.759 105.294C128.609 104.698 128.371 104.143 128.076 103.604C127.961 103.394 127.823 103.195 127.682 103.002C127.725 102.564 127.762 102.125 127.793 101.686C127.882 100.44 127.94 99.1871 127.977 97.9384C127.995 97.3049 128.022 96.6721 128.013 96.0392C128.006 95.4012 127.989 94.7638 127.957 94.1257C127.886 92.675 127.812 91.2243 127.764 89.7723C142.563 86.7749 157.362 83.7853 172.16 80.7845C187.171 77.7413 202.181 74.6876 217.193 71.6496C217.22 72.0706 217.257 72.491 217.278 72.912C217.322 73.8789 217.359 74.8497 217.348 75.8173C217.346 76.0618 217.339 76.3063 217.335 76.5508C217.298 76.6332 217.271 76.7208 217.244 76.8123C217.224 76.9339 217.21 77.0562 217.206 77.1791C217.197 77.3236 217.174 77.47 217.163 77.6145C217.137 77.9433 217.113 78.2715 217.09 78.6003C217.071 78.8906 217.054 79.1822 217.043 79.4744C216.98 79.7333 216.91 79.9922 216.828 80.2478C216.652 80.7937 216.449 81.3297 216.274 81.8763C215.882 83.0975 215.506 84.3351 215.367 85.6151C215.307 86.1675 215.331 86.7297 215.519 87.2586C215.666 87.6685 215.909 88.0281 216.229 88.3223C216.383 88.4635 216.567 88.5832 216.748 88.6865C217.031 88.8492 217.335 88.9303 217.655 88.9663C218.431 89.0513 219.128 88.5609 219.675 88.066C219.993 87.7784 220.26 87.4116 220.508 87.0638C221.296 85.957 221.856 84.7168 222.2 83.4028C222.302 83.0112 222.386 82.6144 222.475 82.2189C222.613 82.4457 222.743 82.6771 222.872 82.9105C223.051 83.2315 223.219 83.5545 223.37 83.8892C223.47 84.1742 223.551 84.4593 223.604 84.7561C223.63 85.0627 223.62 85.3634 223.595 85.67C223.557 85.8936 223.514 86.1152 223.453 86.3349C223.375 86.6167 223.28 86.8893 223.178 87.1619C222.995 87.562 222.793 87.9431 222.539 88.3047C222.332 88.559 222.118 88.8015 221.885 89.0336C221.674 89.2454 221.447 89.4363 221.215 89.6227C220.88 89.8606 220.533 90.0639 220.16 90.2345C219.822 90.3633 219.482 90.4555 219.126 90.5157C218.665 90.5581 218.206 90.551 217.746 90.5026C217.096 90.3908 216.481 90.175 215.869 89.9371C215.489 89.7645 215.125 89.5775 214.783 89.3343C214.563 89.15 214.362 88.9519 214.178 88.7322C213.995 88.4766 213.842 88.2066 213.71 87.9216C213.583 87.5901 213.491 87.2528 213.43 86.903C213.382 86.4434 213.393 85.9904 213.428 85.5288C213.438 85.453 213.448 85.3778 213.459 85.302C213.502 84.9777 213.599 84.6593 213.717 84.354C213.832 84.1121 213.968 83.8892 214.125 83.6728C214.629 83.0465 215.206 82.4921 215.835 81.9914C215.978 81.877 216.049 81.6481 216.049 81.4742C216.049 81.2807 215.971 81.0931 215.835 80.9571C215.699 80.8198 215.51 80.742 215.318 80.742C215.106 80.742 214.96 80.8303 214.8 80.9571C214.101 81.5154 213.457 82.1378 212.902 82.8412C212.706 83.0916 212.535 83.3498 212.39 83.6323C212.252 83.901 212.148 84.1886 212.056 84.475C211.949 84.8162 211.887 85.1784 211.841 85.5314C211.777 86.0401 211.741 86.5402 211.777 87.0534C211.817 87.6267 211.939 88.1929 212.151 88.727C212.258 88.9983 212.38 89.2617 212.525 89.5141C212.694 89.8122 212.919 90.0848 213.142 90.3418C213.525 90.7791 214.017 91.1348 214.519 91.4192C214.745 91.5466 214.983 91.6525 215.22 91.7545C215.809 92.0062 216.402 92.2409 217.03 92.3769C217.688 92.5188 218.377 92.558 219.047 92.5044C219.387 92.4776 219.728 92.422 220.06 92.3442C220.392 92.2664 220.71 92.1363 221.022 92.0023C221.566 91.7689 222.058 91.4649 222.518 91.0916C222.713 90.9328 222.901 90.7739 223.086 90.602C223.405 90.3071 223.688 89.9757 223.951 89.6311C224.155 89.3624 224.344 89.0918 224.505 88.793C224.648 88.5263 224.766 88.2367 224.872 87.9536C225.172 87.1482 225.329 86.3002 225.353 85.4425C225.366 84.9993 225.296 84.5423 225.182 84.1141C225.136 83.9435 225.085 83.7735 225.018 83.6094C224.851 83.2028 224.662 82.8196 224.442 82.4385C224.26 82.1175 224.066 81.7985 223.864 81.4899C223.599 81.0879 223.312 80.7146 222.943 80.4034C222.911 80.3772 222.877 80.3622 222.845 80.34C223.102 78.8376 223.281 77.3222 223.373 75.8036C223.482 73.9959 223.507 72.1798 223.483 70.3663C227.474 69.5498 231.465 68.7299 235.456 67.9141C241.553 66.6674 247.649 65.4115 253.742 64.1367C258.98 63.0403 264.219 61.9414 269.461 60.86C272.165 60.3017 274.867 59.735 277.566 59.1544C278.661 58.9191 279.752 58.6641 280.846 58.4294C281.148 58.3647 281.502 58.3098 281.806 58.179C281.934 58.1496 282.06 58.1202 282.185 58.0875C282.336 58.0483 282.488 57.9776 282.627 57.8828C282.651 57.873 282.674 57.8632 282.699 57.8528C282.702 57.8501 282.706 57.8475 282.71 57.8456C282.731 57.839 282.753 57.8338 282.776 57.8273C282.843 57.8083 282.901 57.7874 282.954 57.7639C283.069 57.7351 283.184 57.7089 283.299 57.6834C283.248 58.717 283.199 59.7486 283.153 60.762L283.076 62.4081ZM278.242 240.741C278.264 240.741 278.285 240.74 278.307 240.736C278.312 240.783 278.314 240.83 278.319 240.877C278.287 240.891 278.255 240.906 278.224 240.92C278.23 240.86 278.236 240.801 278.242 240.741ZM55.2454 329.794C53.6512 327.255 52.0628 324.712 50.4667 322.174C48.7632 319.465 47.039 316.77 45.3278 314.065C43.6886 311.474 42.0532 308.882 40.4074 306.297C38.6744 303.571 36.944 300.842 35.2101 298.117C33.5002 295.427 31.7594 292.755 30.0188 290.084C26.4769 284.65 22.8997 279.238 19.2279 273.89C18.5023 272.833 17.786 271.766 17.017 270.74C17.0154 270.742 17.0134 270.744 17.0119 270.747C16.9307 270.601 16.7992 270.489 16.6363 270.43C16.6136 269.944 16.5877 269.458 16.5604 268.971C16.502 267.953 16.4578 266.935 16.3909 265.917C16.3067 264.632 16.2224 263.347 16.1437 262.062C15.9811 259.386 15.8021 256.712 15.6402 254.038C15.4736 251.303 15.2869 248.569 15.1097 245.837C14.3514 234.152 13.5509 222.47 12.7198 210.791C12.3044 204.952 11.8764 199.112 11.4521 193.272C11.0204 187.328 10.6105 181.382 10.191 175.436C9.35993 163.66 8.51177 151.884 7.62321 140.113C6.93944 131.053 6.20895 121.997 5.47463 112.942C5.11283 108.472 4.75742 104.001 4.39178 99.5309C4.2031 97.2258 4.01645 94.922 3.83363 92.6168C3.65057 90.3254 3.49303 88.032 3.32936 85.7393C7.10978 86.9926 10.8759 88.289 14.644 89.5795C16.56 90.2345 18.4846 90.8628 20.4083 91.495C21.3598 91.8081 22.3135 92.1128 23.27 92.4096C23.6644 92.5318 24.0571 92.6547 24.4544 92.7672C24.5903 92.8071 24.7274 92.8424 24.8663 92.8738C25.0483 92.9156 25.2278 92.9855 25.414 93.0123C25.5054 93.0359 25.596 93.0633 25.6877 93.0895C25.762 93.1111 25.8396 93.1235 25.9175 93.1333C26.0434 93.1634 26.1677 93.2 26.2928 93.232C26.2951 93.2327 26.2976 93.2327 26.2999 93.2327C26.0924 93.4216 25.9369 93.6661 25.8626 93.9381C25.7658 94.2904 25.7888 94.7762 26.0119 95.0828C26.1761 95.3083 26.337 95.5372 26.5009 95.7634C26.9809 106.701 27.4482 117.639 27.9103 128.577C28.3699 139.466 28.8468 150.356 29.3284 161.244C29.8148 172.238 30.2946 183.231 30.7761 194.224C31.2413 204.829 31.6779 215.436 32.1288 226.041C32.3972 232.328 32.6681 238.613 32.9438 244.899C33.0873 248.186 33.2339 251.474 33.3756 254.761C33.4465 256.426 33.5163 258.09 33.5834 259.754C33.5995 260.155 33.6158 260.555 33.6322 260.957C33.6409 261.178 33.6437 261.399 33.6504 261.622C33.6534 261.673 33.6534 261.726 33.6513 261.779C33.6611 261.978 33.6694 262.177 33.6802 262.375C33.6868 262.474 33.6963 262.573 33.7098 262.673C33.7175 262.795 33.7241 262.918 33.7308 263.04C33.7325 263.07 33.7364 263.098 33.7428 263.125C33.8096 264.11 33.8431 265.099 33.8916 266.085C33.9097 266.461 33.9283 266.837 33.9465 267.212C32.8693 267.356 31.7928 267.501 30.7173 267.658C29.3787 267.852 28.0402 268.05 26.7005 268.247C24.0084 268.643 21.3149 269.042 18.6215 269.441C18.2959 269.488 17.9693 269.538 17.643 269.586C17.5146 269.605 17.3883 269.722 17.3259 269.829C17.2552 269.951 17.235 270.101 17.2733 270.237C17.3098 270.37 17.3979 270.485 17.5166 270.553C17.5588 270.572 17.6009 270.589 17.643 270.607C17.7368 270.632 17.8304 270.632 17.9244 270.607C20.6235 270.208 23.3228 269.81 26.0226 269.411C27.3586 269.214 28.6941 269.015 30.0298 268.816C31.3291 268.623 32.6275 268.431 33.9238 268.22C33.948 268.215 33.9728 268.211 33.9973 268.208C34.006 268.368 34.0147 268.528 34.0229 268.687C34.041 269.022 34.0747 269.354 34.1168 269.685C34.1263 269.762 34.1406 269.823 34.198 269.881C34.2488 269.932 34.3198 269.961 34.3926 269.961C34.5475 269.961 34.6625 269.836 34.6683 269.685C34.6777 269.451 34.6806 269.22 34.6798 268.986C34.6798 268.691 34.665 268.396 34.653 268.101C34.7602 268.084 34.8675 268.067 34.975 268.049C34.9448 267.974 34.9152 267.896 34.8851 267.816C34.8016 267.592 34.7515 267.349 34.7362 267.102C34.6966 267.108 34.6571 267.113 34.6175 267.118C34.6037 266.774 34.5904 266.43 34.5772 266.085C34.5388 265.094 34.4847 264.101 34.4646 263.11C34.4684 263.086 34.47 263.063 34.4692 263.04C34.4633 262.841 34.4585 262.645 34.4622 262.445C34.4671 262.224 34.4469 261.999 34.4383 261.779C34.4347 261.703 34.425 261.627 34.4211 261.551C34.4097 261.352 34.3954 261.155 34.3849 260.957C34.3157 259.582 34.2547 258.208 34.1914 256.834C34.0688 254.181 33.9529 251.528 33.8352 248.877C33.6036 243.628 33.3699 238.379 33.1333 233.132C32.6594 222.628 32.172 212.125 31.6953 201.621C31.4492 196.191 31.2127 190.759 30.9714 185.328C30.7253 179.779 30.4802 174.228 30.2361 168.679C29.7563 157.775 29.2786 146.871 28.7894 135.967C28.4868 129.233 28.1735 122.499 27.8671 115.764C27.5745 109.33 27.287 102.896 27.0026 96.4622C29.0856 99.3374 31.1606 102.219 33.216 105.114C34.2414 106.558 35.2676 108.004 36.295 109.447C36.8879 116.026 37.4013 122.612 37.9396 129.196C38.5345 136.447 39.1473 143.695 39.7506 150.944C40.3575 158.232 40.9979 165.516 41.6273 172.803C42.2419 179.912 42.8414 187.022 43.4309 194.133C44.6203 208.473 45.9321 222.803 47.2386 237.133C48.525 251.234 49.8402 265.331 51.1538 279.429C52.0625 289.178 52.9883 298.924 53.9831 308.664C54.2254 311.032 54.48 313.398 54.7157 315.766C54.9482 318.098 55.177 320.43 55.4183 322.761C55.6068 324.581 55.7865 326.402 55.9742 328.222C55.7995 327.71 55.6249 327.196 55.452 326.683C54.8686 324.951 54.2916 323.216 53.7175 321.481C53.0946 319.598 52.446 317.721 51.7932 315.848C51.1183 313.913 50.454 311.977 49.7881 310.041C47.0938 302.196 44.3917 294.355 41.6857 286.515C39.6899 280.735 37.6934 274.956 35.71 269.172C35.6838 269.148 35.6579 269.123 35.6322 269.097C35.3335 268.799 35.1662 268.505 35.0194 268.155C35.0082 268.158 34.9969 268.16 34.9857 268.163C34.7942 268.216 34.6507 268.436 34.7186 268.634C37.4312 276.551 40.1209 284.478 42.815 292.402C44.141 296.302 45.4692 300.202 46.7999 304.099C48.1254 307.979 49.4646 311.855 50.7719 315.742C51.2608 317.198 51.7523 318.652 52.2558 320.102C52.7077 321.405 53.1757 322.703 53.6307 324.003C54.11 325.378 54.5946 326.751 55.0708 328.127C55.4349 329.181 55.7998 330.235 56.1818 331.283C55.87 330.786 55.5572 330.289 55.2454 329.794ZM26.2376 90.7739C26.2315 90.7693 26.2254 90.7654 26.2195 90.7621C26.2221 90.7634 26.2241 90.7641 26.2264 90.7654C26.2302 90.768 26.2338 90.7706 26.2376 90.7739ZM45.879 77.3431C53.536 76.1723 61.1805 74.9302 68.829 73.7083C76.5583 72.474 84.2863 71.2345 92.0149 69.995C99.5429 68.7888 107.062 67.5362 114.583 66.2895C117.273 65.8436 119.964 65.4063 122.654 64.9643C122.152 67.1956 121.735 69.4452 121.428 71.713C121.072 74.3483 120.901 77.0117 120.827 79.6692C120.755 82.2267 120.746 84.7868 120.601 87.3417C120.586 87.6058 120.575 87.8693 120.561 88.1334C115.875 89.1029 111.188 90.0744 106.5 91.038C100.678 92.2357 94.8596 93.4484 89.0383 94.6526C83.0313 95.8941 77.0231 97.1349 71.0233 98.4182C65.1775 99.6689 59.3356 100.947 53.4967 102.237C50.574 102.883 47.6522 103.535 44.7321 104.197C43.2708 104.53 41.8154 104.888 40.3613 105.25C40.0588 105.325 39.7563 105.401 39.4537 105.476C38.9852 105.593 38.5153 105.689 38.043 105.785C37.9074 105.813 37.7715 105.84 37.6357 105.868C37.0587 105.093 36.4824 104.317 35.9056 103.541C33.444 100.236 30.9995 96.9172 28.5752 93.5837C28.4031 93.3471 28.2231 93.1542 27.9841 93.0235C28.0926 92.913 28.1781 92.779 28.2213 92.6221C28.2882 92.3795 28.2537 92.1141 28.1263 91.8977C27.9943 91.6708 27.8028 91.5558 27.5654 91.4649C27.5554 91.4616 27.5459 91.4577 27.5362 91.4545C27.4497 91.3459 27.346 91.2557 27.2234 91.1825C27.0493 91.0831 26.8515 91.0138 26.6592 90.9426C26.5004 90.8713 26.341 90.802 26.1787 90.7386C26.1194 90.7072 26.0479 90.6798 25.9108 90.6235C25.7885 90.5738 25.6657 90.5281 25.5434 90.479C24.9089 90.2182 24.2589 89.9992 23.6108 89.771C22.6257 89.4258 21.6338 89.0983 20.6427 88.7695C18.7621 88.1471 16.8817 87.5241 14.9935 86.9246C11.6293 85.8564 8.26411 84.7894 4.90805 83.6957C18.5528 81.5004 32.2177 79.4332 45.879 77.3431ZM173.775 3.02106C173.937 3.02302 174.098 3.03478 174.26 3.04132C173.749 3.04197 173.239 3.04262 172.728 3.05112C172.082 3.06223 171.437 3.07596 170.792 3.10211C171.784 3.03347 172.777 3.0106 173.775 3.02106ZM127.719 86.4081C127.735 85.1451 127.777 83.8859 127.857 82.6255C127.939 81.3572 128.032 80.0903 128.124 78.8226C128.297 76.424 128.573 74.0384 128.883 71.6542C129.07 70.3336 129.273 69.0143 129.438 67.6911C129.602 66.3869 129.758 65.082 129.897 63.7758C132.175 63.4025 134.453 63.0253 136.731 62.6539C151.955 60.169 167.186 57.7161 182.414 55.2515C192.67 53.5916 202.923 51.9004 213.177 50.2222C213.323 51.1531 213.47 52.0834 213.635 53.011C213.862 54.2852 214.107 55.5568 214.384 56.8205C214.664 58.1005 215.007 59.3643 215.346 60.6293C215.91 62.737 216.45 64.8506 216.771 67.0112C216.82 67.41 216.853 67.8121 216.897 68.2122C210.813 69.4661 204.731 70.7343 198.646 71.9824C183.144 75.1596 167.652 78.3879 152.156 81.5926C144.01 83.2773 135.865 84.9672 127.719 86.6546C127.72 86.5722 127.717 86.4905 127.719 86.4081ZM119.584 109.677C120.065 110.237 120.692 110.574 121.374 110.827C121.655 110.932 121.95 110.984 122.244 111.032C122.582 111.087 122.918 111.119 123.259 111.077C123.461 111.052 123.641 111.023 123.833 110.967C124.069 110.898 124.299 110.781 124.515 110.664C124.85 110.483 125.154 110.216 125.424 109.952C125.699 109.684 125.928 109.356 126.124 109.027C126.05 109.237 125.971 109.446 125.887 109.654C125.586 110.277 125.249 110.869 124.858 111.44C124.739 111.584 124.617 111.723 124.488 111.861C124.346 112.014 124.186 112.15 124.026 112.284C123.83 112.421 123.628 112.543 123.413 112.649C123.207 112.723 123.001 112.78 122.786 112.821C122.205 112.873 121.633 112.869 121.053 112.812C120.568 112.73 120.095 112.626 119.634 112.455C119.448 112.362 119.272 112.259 119.1 112.143C118.974 112.03 118.858 111.913 118.746 111.786C118.552 111.51 118.387 111.219 118.244 110.913C117.972 110.223 117.778 109.5 117.66 108.767C117.6 108.16 117.611 107.546 117.676 106.941C117.779 106.334 117.965 105.764 118.189 105.194C118.474 104.575 118.785 103.976 119.185 103.423C119.345 103.233 119.519 103.058 119.7 102.889C119.697 103.006 119.695 103.121 119.693 103.238C119.55 103.664 119.412 104.091 119.283 104.521C118.99 105.497 118.723 106.495 118.761 107.522C118.789 108.31 119.07 109.078 119.584 109.677ZM85.3792 66.4215C85.6361 65.8652 85.8936 65.3076 86.1498 64.7519C86.3969 64.2171 86.6904 63.7019 86.9617 63.1802C87.063 62.9848 87.18 62.7971 87.2911 62.6075C87.448 62.3375 87.5963 62.0603 87.763 61.7969C88.0931 61.2771 88.4199 60.7568 88.7618 60.2449C90.1109 58.2254 91.4979 56.2341 92.9451 54.2839C93.3484 53.772 93.7556 53.266 94.1706 52.7639C94.6118 52.2292 95.0897 51.7258 95.5635 51.2198C96.4564 50.2699 97.4408 49.4115 98.4552 48.5937C98.9605 48.2177 99.4703 47.8497 99.9926 47.4986C100.548 47.1253 101.127 46.786 101.707 46.45C102.783 45.8237 103.877 45.251 105.013 44.7457C105.46 44.5685 105.909 44.4024 106.367 44.2507C106.872 44.0834 107.385 43.9389 107.892 43.7755C108.951 43.4322 109.997 43.0505 111.055 42.7072C112.114 42.3647 113.199 42.0953 114.277 41.8286C115.216 41.5958 116.17 41.435 117.127 41.3017C118.782 41.1121 120.448 41.0461 122.104 40.8695C123.849 40.6839 125.588 40.3276 127.26 39.7935C127.528 39.7072 127.74 39.5247 127.87 39.2927C127.927 39.2802 127.982 39.2698 128.038 39.2561C127.93 39.5378 127.817 39.8176 127.715 40.102C126.847 42.5203 126.163 45.017 125.696 47.5431C125.401 49.1336 125.17 50.7314 124.952 52.3344C124.74 53.8995 124.574 55.4711 124.373 57.0388C124.203 58.2202 123.994 59.3924 123.708 60.5508C123.603 60.9751 123.503 61.402 123.399 61.8269C116.07 63.0063 108.74 64.1811 101.411 65.3585C95.8492 66.2522 90.2913 67.1681 84.7334 68.088C84.9445 67.531 85.1615 66.9759 85.3792 66.4215ZM81.9639 68.3128C81.9796 68.2893 81.9933 68.2651 82.009 68.2416C82.0064 68.2481 82.0038 68.254 82.0018 68.2606C81.9705 68.3501 81.958 68.4475 81.9554 68.5469C81.8986 68.5567 81.8417 68.5658 81.7848 68.5757C81.8443 68.4874 81.9051 68.4011 81.9639 68.3128ZM98.1546 41.1297C98.1435 41.1317 98.1323 41.1363 98.1206 41.1382C98.15 41.1199 98.1801 41.1023 98.2095 41.0833C98.1918 41.099 98.1735 41.114 98.1546 41.1297ZM220.427 58.2607C220.351 57.9528 220.275 57.6449 220.197 57.337C220.175 57.2069 220.154 57.0768 220.132 56.9467C220.184 56.8865 220.228 56.8205 220.268 56.7512C220.412 57.5618 220.528 58.3777 220.641 59.1943C220.57 58.8831 220.503 58.5706 220.427 58.2607ZM221.162 67.3329C221.129 66.8609 221.095 66.3882 221.055 65.9168C221.033 65.6481 221.009 65.3794 220.985 65.1107C221.048 65.0689 221.093 65.0153 221.145 64.9656C221.18 65.7501 221.207 66.5353 221.22 67.3211C221.201 67.325 221.181 67.329 221.162 67.3329ZM152.891 13.8649C152.977 13.774 153.054 13.6759 153.113 13.5687C153.325 13.4798 153.537 13.3909 153.75 13.302C153.462 13.487 153.177 13.6759 152.891 13.8649ZM174.994 53.4216C174.919 52.9483 174.846 52.475 174.773 52.0016C174.691 51.3976 174.604 50.7922 174.555 50.1849C174.523 49.809 174.502 49.437 174.491 49.0598C174.479 48.7335 174.514 48.4054 174.544 48.0804C174.622 47.6045 174.721 47.1397 174.841 46.6716C174.974 46.1545 175.144 45.6459 175.31 45.1399C175.64 44.1448 176.004 43.1635 176.401 42.1927C176.817 41.2297 177.282 40.291 177.824 39.3907C178.363 38.4964 178.923 37.6164 179.548 36.7796C180.167 35.9971 180.824 35.2564 181.533 34.5529C181.873 34.2163 182.215 33.8874 182.537 33.5324C182.95 33.0748 183.291 32.5459 183.528 31.9772C183.793 31.3365 183.952 30.6559 183.945 29.959C183.943 29.5537 183.875 29.13 183.72 28.7554C183.661 28.6149 183.606 28.4894 183.528 28.3593C183.451 28.2292 183.347 28.1135 183.253 27.9945C183.121 27.8239 182.954 27.682 182.794 27.5375C181.945 26.7752 180.866 26.2745 179.788 25.9286C179.282 25.7671 178.763 25.6567 178.238 25.5782C177.643 25.49 177.046 25.4089 176.447 25.3644C175.329 25.2821 174.206 25.284 173.087 25.2736C170.935 25.2546 168.784 25.2239 166.632 25.1964C166.029 25.1879 165.426 25.1794 164.824 25.1794C164.017 25.1794 163.211 25.1951 162.405 25.2507C160.963 25.3494 159.527 25.5161 158.096 25.7175C157.059 25.8521 156.02 25.9691 154.977 26.06C153.863 26.1561 152.747 26.2163 151.635 26.3464C150.438 26.4869 149.248 26.6922 148.063 26.9191C147.573 27.0139 147.085 27.1191 146.594 27.2172C146.055 27.3244 145.515 27.4205 144.977 27.5414C143.91 27.7807 142.846 28.0383 141.783 28.2998C143.12 26.4719 144.472 24.6531 145.849 22.8553C146.634 21.8453 147.442 20.8607 148.367 19.9716C149.282 19.0923 150.251 18.2744 151.251 17.4932C152.323 16.7008 153.441 15.9772 154.564 15.258C155.136 14.8913 155.713 14.5343 156.299 14.1891C156.863 13.8583 157.453 13.574 158.048 13.3066C160.292 12.407 162.664 11.9226 165.03 11.4669C166.278 11.2263 167.528 10.991 168.77 10.7177C169.379 10.5837 169.984 10.4281 170.594 10.2915C171.167 10.1633 171.745 10.0502 172.319 9.92273C173.153 9.73902 173.98 9.52525 174.817 9.35593C175.598 9.19706 176.38 9.05455 177.167 8.93622C178.379 8.7937 179.586 8.73747 180.803 8.84534C181.329 8.92575 181.851 9.02578 182.374 9.12515C183.01 9.24544 183.648 9.35135 184.285 9.46902C185.634 9.71811 186.961 10.1058 188.236 10.617C189.264 11.0832 190.273 11.5957 191.267 12.1272C192.227 12.6417 193.121 13.2654 194.007 13.893C194.97 14.5761 195.897 15.3123 196.862 15.9909C197.759 16.6191 198.659 17.2415 199.535 17.8986C200.481 18.6432 201.407 19.4094 202.293 20.2253C203.18 21.0424 203.999 21.9427 204.753 22.8841C205.65 24.0831 206.431 25.3442 207.136 26.6654C207.484 27.3198 207.774 28.0076 208.082 28.6803C208.379 29.3308 208.676 29.9806 208.959 30.6376C209.424 31.8006 209.813 32.9839 210.15 34.1908C210.494 35.4172 210.717 36.6731 210.956 37.9224C211.185 39.1273 211.458 40.3197 211.724 41.5168C212.009 42.8053 212.249 44.0965 212.449 45.402C212.545 46.0355 212.638 46.6697 212.73 47.3038C205.603 48.4551 198.478 49.6096 191.351 50.7582C185.898 51.6362 180.446 52.5299 174.994 53.4216ZM171.302 54.0061C171.306 54.0087 171.309 54.0113 171.313 54.0139C171.318 54.0159 171.322 54.0172 171.326 54.0185C171.292 54.0244 171.258 54.0303 171.225 54.0355C171.25 54.0238 171.279 54.0198 171.302 54.0061ZM130.186 59.8703C130.246 58.5837 130.244 57.2958 130.28 56.0092C130.326 54.3866 130.443 52.7718 130.618 51.1583C130.705 50.5072 130.795 49.8554 130.929 49.2134C131.09 48.4452 131.264 47.6816 131.464 46.9226C131.844 45.4844 132.381 44.0815 132.948 42.7066C133.625 41.1853 134.4 39.715 135.227 38.2735C135.264 38.2695 135.3 38.2663 135.338 38.2598C136.004 38.1512 136.671 38.059 137.337 37.959C137.926 38.0453 138.523 38.0695 139.116 38.0767C139.726 38.0845 140.343 38.0381 140.95 37.9812C142.245 37.859 143.536 37.6936 144.827 37.5288C147.502 37.1869 150.223 37.0274 152.822 36.2632C153.617 36.0304 154.402 35.7722 155.185 35.5048C156.327 35.3113 157.467 35.1191 158.606 34.9158C159.482 34.7595 160.351 34.5654 161.22 34.3803C162.067 34.2006 162.915 34.045 163.77 33.9214C165.532 33.7076 167.294 33.4815 169.059 33.2781C170.72 33.0885 172.389 32.9486 174.055 33.1258C174.328 33.1702 174.6 33.2219 174.862 33.3082C174.87 33.3128 174.878 33.3167 174.887 33.3213C174.887 33.3252 174.887 33.3291 174.887 33.333C174.846 33.5069 174.789 33.6743 174.726 33.8417C174.521 34.2633 174.281 34.6549 174.01 35.0367C173.302 35.9075 172.49 36.6855 171.81 37.5792C171.467 38.0296 171.123 38.4859 170.842 38.9782C170.526 39.5319 170.267 40.0994 170.027 40.6904C169.831 41.1735 169.68 41.6776 169.543 42.1797C169.392 42.734 169.241 43.2897 169.095 43.8448C168.816 44.9058 168.555 45.9656 168.39 47.0515C168.264 47.8713 168.157 48.693 168.103 49.5213C168.046 50.3869 168.116 51.2459 168.231 52.1036C168.329 52.8241 168.495 53.553 168.706 54.248C168.725 54.3114 168.748 54.3728 168.769 54.4356C161.252 55.6679 153.736 56.9055 146.217 58.1326C140.858 59.008 135.496 59.8716 130.136 60.7372C130.152 60.4475 130.173 60.1592 130.186 59.8703ZM126.972 71.0554C126.972 70.7697 126.971 70.4846 126.97 70.1989C127.017 70.1885 127.059 70.1636 127.104 70.1486C127.06 70.4506 127.015 70.7527 126.972 71.0554ZM122.916 108.871C122.976 108.88 123.031 108.884 123.077 108.884C123.185 108.883 123.289 108.876 123.391 108.861C123.369 108.873 123.349 108.888 123.327 108.899C123.256 108.922 123.186 108.941 123.114 108.958C122.994 108.963 122.877 108.96 122.756 108.951C122.734 108.947 122.712 108.94 122.691 108.937C122.767 108.919 122.844 108.899 122.916 108.871ZM130.656 43.4793C130.667 43.4519 130.678 43.4251 130.689 43.3976C130.737 43.3133 130.771 43.2257 130.794 43.1374C130.844 43.0152 130.893 42.8936 130.944 42.772C130.988 42.6922 131.022 42.6098 131.044 42.5248C131.086 42.451 131.119 42.3706 131.142 42.2849C131.142 42.2849 131.142 42.2843 131.142 42.2836C131.145 42.279 131.147 42.2738 131.148 42.2692C131.203 42.1411 131.257 42.0129 131.312 41.8848C131.327 41.875 131.339 41.8626 131.353 41.8515C131.32 41.9332 131.283 42.013 131.25 42.094C131.001 42.7131 130.761 43.3368 130.534 43.9657C130.575 43.8036 130.618 43.6414 130.656 43.4793ZM215.976 38.5095C216 38.6265 216.023 38.7435 216.047 38.8606C216.012 38.7625 215.98 38.6625 215.944 38.5644C215.958 38.548 215.963 38.5265 215.976 38.5095ZM226.704 48.0027C229.096 47.6065 231.498 47.2345 233.869 46.7318C235.601 46.365 237.351 46.0845 239.082 45.7158C239.771 45.5687 240.468 45.4615 241.16 45.3242C241.346 45.287 241.533 45.249 241.719 45.2092C241.856 45.1804 241.993 45.1484 242.123 45.0961C242.302 45.051 242.485 45.0222 242.664 44.9823C242.88 44.9346 243.091 44.9065 243.293 44.8346C243.356 44.8208 243.42 44.8097 243.483 44.7986C245.952 46.0113 248.416 47.2293 250.883 48.4453C252.231 49.1095 253.576 49.7822 254.935 50.4242C255.033 50.4712 255.133 50.5189 255.231 50.566C255.388 50.5444 255.55 50.5314 255.722 50.5268C255.778 50.5261 255.833 50.5248 255.889 50.5248C255.967 50.5248 256.045 50.5268 256.124 50.5301C256.419 50.5418 256.714 50.566 257.009 50.5837C257.798 50.6275 258.564 50.6928 259.349 50.802C259.487 50.8197 259.621 50.8478 259.757 50.8785C259.787 50.8851 259.819 50.8929 259.849 50.9008C259.846 50.87 259.836 50.84 259.829 50.8092C263.005 51.3067 266.179 51.8075 269.354 52.3037C271.812 52.6875 274.272 53.0509 276.732 53.4183C277.794 53.5759 278.858 53.7256 279.926 53.84C280.47 53.8995 281.013 53.9636 281.559 54.0231C281.812 54.0518 282.063 54.0904 282.316 54.1172C282.411 54.1284 282.505 54.1375 282.599 54.1427C282.65 54.1466 282.7 54.1447 282.75 54.1401C282.997 54.146 283.243 54.1643 283.49 54.1747C283.472 54.4683 283.459 54.7631 283.442 55.0573C283.099 55.0959 282.759 55.1599 282.419 55.2175C282.34 55.2188 282.261 55.2253 282.182 55.2351C282.141 55.2293 282.099 55.2253 282.058 55.2234C281.84 55.1842 281.622 55.1933 281.404 55.2521C281.336 55.2619 281.27 55.273 281.202 55.2841C281.069 55.2835 280.949 55.3057 280.725 55.3404C280.355 55.3966 279.987 55.4731 279.62 55.545C278.147 55.832 276.671 56.1027 275.198 56.391C271.785 57.0578 268.379 57.7593 264.967 58.4392C261.823 59.0662 258.679 59.7055 255.536 60.337C255.536 60.3227 255.537 60.3083 255.537 60.2932C255.541 59.8951 255.545 59.4976 255.548 59.0995C255.554 58.3078 255.555 57.5174 255.556 56.7257C255.559 55.1096 255.561 53.4942 255.561 51.8774C255.561 51.6983 255.561 51.5192 255.561 51.3401C255.561 51.2093 255.452 51.1001 255.321 51.1001C255.189 51.1001 255.08 51.2093 255.08 51.3401C255.08 52.9607 255.081 54.5807 255.084 56.202C255.086 57.6089 255.089 59.0158 255.11 60.4233C251.246 61.1993 247.381 61.9688 243.519 62.7559C236.805 64.1229 230.092 65.505 223.379 66.8792C223.323 65.6181 223.255 64.3576 223.176 63.0972C223.076 61.4935 222.872 59.9003 222.658 58.3078C222.662 58.3372 222.666 58.3666 222.67 58.396C222.659 58.3091 222.647 58.2215 222.635 58.1339C222.634 58.1313 222.634 58.1287 222.634 58.126C222.634 58.1247 222.633 58.1234 222.633 58.1221C222.636 58.145 222.64 58.1679 222.643 58.1908C222.639 58.1646 222.636 58.1385 222.632 58.1117C222.632 58.1149 222.632 58.1189 222.633 58.1221C222.63 58.0966 222.626 58.0711 222.623 58.0463C222.625 58.0659 222.628 58.0855 222.631 58.1058C222.617 58.0051 222.604 57.9044 222.59 57.8031C222.591 57.8129 222.593 57.822 222.594 57.8312C222.59 57.7998 222.586 57.7678 222.581 57.7364C222.573 57.673 222.564 57.6096 222.556 57.5455C222.562 57.5887 222.567 57.6312 222.573 57.6736C222.211 55.0482 221.63 52.4567 221.111 49.8587C221.051 49.5547 220.98 49.2546 220.915 48.9532C222.845 48.6375 224.775 48.3223 226.704 48.0027ZM284.928 54.8612C284.931 54.5441 284.936 54.2264 284.937 53.9113C284.952 53.7047 284.864 53.5112 284.724 53.3674C284.787 53.1163 284.764 52.8411 284.618 52.5927C284.478 52.3534 284.248 52.1802 283.985 52.1069C283.674 52.0108 283.353 51.948 283.04 51.8572C283.052 51.8618 283.063 51.867 283.074 51.8716C282.973 51.835 282.872 51.8055 282.759 51.7794C282.518 51.7238 282.271 51.6885 282.028 51.6447C281.485 51.5447 280.94 51.4434 280.4 51.3309C279.422 51.1296 278.434 50.972 277.448 50.8177C274.991 50.434 272.536 50.0509 270.077 49.6854C265.025 48.9343 259.971 48.2047 254.923 47.4359C254.807 47.4202 254.692 47.4051 254.577 47.3894C254.431 47.3894 254.295 47.4201 254.162 47.4659C253.461 47.122 252.758 46.7814 252.055 46.4389C249.123 45.0098 246.189 43.5846 243.261 42.1483C243.066 42.0535 242.872 41.994 242.668 41.994C242.574 41.994 242.479 42.0071 242.381 42.0339C242.095 42.1123 241.847 42.3026 241.698 42.5582C241.618 42.6955 241.57 42.8484 241.552 43.0047C241.408 43.0132 241.262 43.0295 241.111 43.0491C240.517 43.1289 239.92 43.206 239.326 43.2904C239.033 43.3296 238.74 43.3695 238.446 43.4094C238.552 43.395 238.658 43.3799 238.764 43.3662C237.707 43.4858 236.652 43.6316 235.599 43.7781C235.123 43.8408 234.649 43.903 234.174 43.9664C234.179 43.9657 234.184 43.9651 234.189 43.9644C234.178 43.9657 234.167 43.967 234.157 43.9683C234.049 43.9834 233.941 43.9977 233.833 44.0121C233.849 44.0102 233.866 44.0082 233.883 44.0056C233.695 44.0311 233.506 44.0566 233.317 44.0821C233.436 44.0657 233.557 44.05 233.677 44.0337C230.653 44.3991 227.646 44.8941 224.638 45.3798C223.165 45.6178 221.692 45.8557 220.22 46.0937C219.884 44.8966 219.596 43.6865 219.328 42.4732C219.046 41.1977 218.804 39.9124 218.58 38.6265C218.358 37.3582 218.116 36.0952 217.882 34.8295C217.761 34.1738 217.637 33.5187 217.5 32.8663C217.37 32.2504 217.182 31.6405 216.992 31.0416C216.579 29.7407 216.069 28.4613 215.398 27.2695C214.757 26.1319 214.036 25.046 213.364 23.9268C212.702 22.8233 212.066 21.7027 211.351 20.6325C210.593 19.4976 209.767 18.4222 208.865 17.3984C208.015 16.4348 207.169 15.4666 206.28 14.5376C205.853 14.0917 205.436 13.6315 204.997 13.1974C204.513 12.7182 204.019 12.2625 203.498 11.8239C202.445 10.938 201.271 10.1875 200.075 9.51022C198.934 8.86366 197.805 8.2001 196.663 7.55157C195.546 6.91678 194.404 6.31663 193.266 5.71713C192.721 5.42883 192.159 5.17322 191.596 4.92087C190.966 4.63975 190.342 4.34947 189.719 4.05136C188.482 3.46102 187.241 2.88441 185.977 2.35422C185.346 2.08945 184.713 1.83971 184.066 1.61743C183.507 1.42457 182.937 1.25984 182.368 1.10294C181.006 0.728334 179.631 0.465514 178.225 0.313843C176.897 0.171324 175.561 0.0543315 174.225 0.0151062C173.906 0.00595363 173.587 0.000701904 173.267 0.000701904C172.31 0.000701904 171.353 0.0432033 170.401 0.128845C169.008 0.254366 167.624 0.504106 166.268 0.84079C165.047 1.14413 163.839 1.48405 162.623 1.80701C161.39 2.13519 160.164 2.49477 158.93 2.81903C157.653 3.15506 156.37 3.46953 155.109 3.86179C154.415 4.07818 153.744 4.37628 153.081 4.67047C152.543 4.90648 152.004 5.16928 151.496 5.46347C150.294 6.15907 149.198 7.00961 148.117 7.87845C147.147 8.65772 146.178 9.45009 145.261 10.2915C144.29 11.1832 143.373 12.1305 142.488 13.1072C141.58 14.11 140.696 15.1332 139.876 16.2086C139.095 17.2343 138.325 18.2745 137.643 19.3695C136.279 21.5576 135.056 23.8248 133.841 26.0973C133.256 27.1904 132.722 28.3037 132.211 29.4328C131.937 30.0427 131.669 30.6559 131.397 31.2678C131.358 31.2606 131.324 31.2436 131.283 31.2423C130.521 31.2103 129.757 31.1874 128.995 31.1743C128.87 31.1717 128.744 31.1704 128.619 31.1704C128.314 31.1704 128.008 31.1783 127.704 31.1972C127.049 31.2371 126.412 31.3829 125.778 31.5398C125.185 31.6882 124.6 31.8706 124.004 32.0131C123.476 32.1393 122.944 32.2302 122.409 32.3106C121.127 32.4681 119.842 32.5976 118.557 32.7238C116.164 32.9585 113.75 33.1173 111.395 33.6201C110.287 33.8567 109.214 34.2052 108.143 34.5693C107.484 34.7935 106.829 35.0407 106.191 35.3218C106.114 35.3558 106.039 35.393 105.962 35.4277C105.386 35.6088 104.812 35.7938 104.24 35.9814C103.295 36.2919 102.352 36.626 101.43 37.0026C100.429 37.4112 99.4154 37.8165 98.4709 38.348C98.0323 38.5958 97.5833 38.8403 97.1689 39.1273C96.6976 39.4548 96.2374 39.7948 95.7923 40.157C95.0073 40.7944 94.2484 41.4716 93.568 42.2215C92.1391 43.7951 90.7881 45.4295 89.5069 47.1259C88.2728 48.7603 87.0486 50.4026 85.8178 52.0403C84.5903 53.674 83.4117 55.3443 82.1692 56.9669C82.1345 57.0127 82.0999 57.0572 82.0646 57.1023C82.0822 57.08 82.0992 57.0578 82.1169 57.0356C82.0894 57.0709 82.0626 57.1062 82.0358 57.1408C81.407 57.9541 80.7867 58.7759 80.2226 59.6349C79.6788 60.4645 79.2108 61.3393 78.7814 62.2323C78.3375 63.1593 77.9408 64.1151 77.6322 65.097C77.3518 65.9907 77.1662 66.9106 76.9904 67.8304C76.8891 68.3593 76.7864 68.8882 76.6891 69.4177C69.5226 70.6036 62.3566 71.7849 55.1905 72.9676C46.2372 74.4444 37.3028 76.035 28.3591 77.5668C19.1701 79.1397 9.9822 80.7172 0.780679 82.2136C0.522288 82.2561 0.272321 82.4856 0.144913 82.7026C0.00141868 82.9484 -0.0379018 83.2479 0.0376753 83.5218C0.111465 83.7885 0.288662 84.0193 0.527139 84.1579C0.794209 84.3148 1.05184 84.3141 1.34674 84.2651C1.47185 84.2448 1.59722 84.2252 1.72233 84.205C1.71697 84.2605 1.71825 84.3155 1.72003 84.371C1.47109 84.424 1.2395 84.5469 1.05771 84.7286C0.825107 84.9613 0.645101 85.3294 0.669103 85.6674C0.887405 88.7205 1.10086 91.7722 1.29517 94.8259C1.48283 97.788 1.66105 100.75 1.84284 103.712C2.20285 109.58 2.58125 115.446 2.93922 121.313C3.66027 133.118 4.47987 144.916 5.31198 156.713C6.15457 168.651 7.03343 180.587 7.88643 192.524C8.72237 204.208 9.52387 215.893 10.4114 227.572C10.9553 234.731 11.5029 241.891 12.0527 249.051C12.3024 252.297 12.5847 255.543 12.8368 258.792C12.9583 260.366 13.0829 261.94 13.2093 263.514C13.2733 264.315 13.3336 265.116 13.3959 265.917C13.4437 266.535 13.4784 267.157 13.5527 267.773C13.5514 267.765 13.5502 267.756 13.5491 267.748C13.6964 269.038 13.757 270.337 13.9321 271.625C13.9148 271.501 13.8987 271.378 13.8823 271.255C13.9436 271.725 13.9895 272.199 14.0404 272.673C14.0613 272.871 14.0881 273.068 14.1129 273.266C14.1272 273.389 14.1433 273.512 14.1629 273.634C14.1667 273.713 14.1749 273.794 14.1801 273.871C14.1951 274.083 14.237 274.278 14.3233 274.455C14.3345 274.591 14.3483 274.733 14.3813 274.846C14.4185 274.974 14.4777 275.095 14.5334 275.215C14.6532 275.471 14.9527 275.666 15.2151 275.739C15.6068 275.846 16.0355 275.733 16.323 275.446C16.4626 275.306 16.5632 275.131 16.6156 274.943C16.6807 274.728 16.6772 274.513 16.6733 274.295C16.7206 274.16 16.7446 274.019 16.7451 273.871C16.7448 273.793 16.7379 273.717 16.7244 273.643C16.7241 273.64 16.7238 273.636 16.7234 273.633C16.7208 273.587 16.7175 273.541 16.7129 273.494C16.7244 273.396 16.7254 273.298 16.7244 273.198C17.1819 274.01 17.6471 274.818 18.1096 275.627C18.9273 277.058 19.7603 278.481 20.5893 279.906C22.2257 282.722 23.8975 285.516 25.5712 288.31C27.2104 291.045 28.8622 293.773 30.5195 296.497C32.1827 299.229 33.8763 301.943 35.5645 304.661C38.8659 309.976 42.1576 315.298 45.46 320.612C47.102 323.254 48.7565 325.888 50.4139 328.522C51.2164 329.796 52.0158 331.072 52.8162 332.347C53.5268 333.479 54.2344 334.613 54.9735 335.725C55.2406 336.126 55.5 336.532 55.7643 336.936C55.8764 337.107 55.9885 337.277 56.1013 337.448C56.1991 337.589 56.3025 337.726 56.4135 337.858C56.6053 338.051 56.841 338.191 57.0994 338.267C57.1132 338.272 57.1277 338.273 57.1415 338.278C57.1512 338.344 57.1581 338.41 57.1678 338.476C57.1905 338.631 57.228 338.784 57.2549 338.939C57.2919 339.152 57.3213 339.365 57.3509 339.579C57.3925 339.965 57.4288 340.351 57.4951 340.732C57.5592 340.963 57.6762 341.163 57.8447 341.333C57.9019 341.389 57.965 341.439 58.0303 341.484C58.0416 341.686 58.0558 341.888 58.0701 342.089C58.0857 342.297 58.1115 342.503 58.1422 342.71C58.1669 342.877 58.2024 343.038 58.2465 343.2C58.2803 343.324 58.3301 343.442 58.3811 343.559C58.3712 343.681 58.3581 343.804 58.3502 343.927C58.3273 344.301 58.3262 344.673 58.3349 345.047C58.3426 345.354 58.5867 345.612 58.8997 345.612C58.9301 345.612 58.9579 345.598 58.9875 345.594C58.9965 345.757 59.0167 345.921 59.0458 346.081C59.0629 346.17 59.107 346.251 59.1423 346.334C59.1816 346.427 59.2917 346.51 59.3664 346.567C59.5148 346.681 59.7112 346.704 59.8919 346.7C60.0022 346.697 60.1161 346.671 60.2254 346.656C60.2961 346.646 60.3671 346.631 60.4368 346.615C60.5481 346.589 60.6568 346.553 60.7669 346.524C60.9599 346.721 61.201 346.872 61.4701 346.946C61.9037 347.065 62.2849 346.974 62.6793 346.788C68.7421 343.917 74.8595 341.163 80.9469 338.344C87.1198 335.487 93.2784 332.602 99.437 329.715C111.707 323.965 123.959 318.176 136.209 312.382C161.272 300.53 186.328 288.663 211.387 276.8C223.239 271.188 235.091 265.576 246.943 259.964C256.853 255.271 266.779 250.612 276.669 245.881C276.653 245.887 276.638 245.894 276.623 245.9C276.892 245.783 277.155 245.656 277.402 245.502C278.024 245.239 278.626 244.918 279.223 244.608C279.705 244.357 280.276 244.168 280.669 243.775C280.915 243.528 281.081 243.225 281.169 242.897C281.306 242.573 281.329 242.202 281.236 241.864C281.162 241.597 281.027 241.366 280.831 241.169C280.649 240.988 280.437 240.858 280.194 240.781C279.964 240.669 279.771 240.63 279.522 240.606C279.534 240.596 279.549 240.592 279.559 240.581C279.623 240.509 279.664 240.449 279.697 240.358C279.713 240.313 279.721 240.269 279.729 240.222C279.736 240.173 279.75 240.122 279.759 240.073C279.783 239.961 279.806 239.848 279.828 239.736C279.874 239.51 279.904 239.279 279.942 239.052C280.026 238.536 280.089 238.016 280.16 237.499C280.167 237.452 280.173 237.407 280.179 237.362C280.179 237.269 280.156 237.182 280.109 237.102C280.042 236.987 279.93 236.901 279.802 236.866C279.757 236.853 279.711 236.847 279.665 236.847C279.617 236.847 279.572 236.871 279.525 236.885C279.537 236.597 279.545 236.308 279.57 236.022C279.598 235.793 279.612 235.558 279.626 235.332L279.64 235.135C279.652 234.941 279.667 234.746 279.682 234.553C279.702 234.295 279.721 234.038 279.736 233.779L279.801 232.591C279.843 231.79 279.888 230.99 279.935 230.189C279.966 229.649 280.006 229.102 280.056 228.563C280.104 228.008 280.133 227.454 280.157 226.939C280.187 226.302 280.215 225.664 280.242 225.028C280.276 224.246 280.31 223.465 280.349 222.683C280.574 217.955 280.774 212.933 280.998 206.396C281.427 193.868 281.816 181.585 282.105 172.285C282.379 163.504 282.606 154.574 282.827 145.939C282.894 143.274 282.963 140.609 283.032 137.944C283.208 131.203 283.375 124.463 283.543 117.721C283.666 112.826 283.788 107.93 283.913 103.034L283.995 99.8264C284.071 96.9283 284.148 93.9322 284.215 90.9844C284.267 88.5786 284.318 86.1734 284.369 83.7676C284.405 82.0554 284.441 80.3439 284.479 78.6324C284.568 74.4948 284.652 70.3578 284.736 66.2208C284.778 64.155 284.817 62.0891 284.852 60.0239L284.873 58.8295C284.881 58.3222 284.89 57.8031 284.898 57.2873C284.966 57.2696 285.03 57.2513 285.093 57.2304C285.099 57.2291 285.104 57.2284 285.11 57.2278C285.316 57.1703 285.494 57.0656 285.645 56.9153C285.872 56.6884 286.001 56.3772 286.001 56.0576C286.001 55.426 285.524 54.9482 284.928 54.8612Z" fill="#0063FF"/>
<path d="M277.188 240.363C277.193 240.329 277.198 240.295 277.202 240.261C277.204 240.254 277.204 240.244 277.205 240.236C277.2 240.278 277.194 240.321 277.188 240.363Z" fill="#282727"/>
<path d="M277.153 240.627C277.157 240.607 277.159 240.585 277.162 240.565C277.162 240.559 277.163 240.554 277.164 240.547C277.16 240.574 277.157 240.6 277.153 240.627Z" fill="#282727"/>
<path d="M222.635 58.133V58.1336C222.635 58.1409 222.637 58.1468 222.637 58.1541C222.637 58.1468 222.635 58.1402 222.635 58.133Z" fill="#282727"/>
<path d="M222.631 58.1045C222.632 58.1114 222.633 58.1182 222.634 58.1257C222.634 58.1278 222.634 58.1305 222.635 58.1332C222.634 58.1237 222.632 58.1141 222.631 58.1045Z" fill="#282727"/>
<path d="M81.916 57.2957C81.9559 57.2441 81.9958 57.1924 82.0356 57.1408C82.0454 57.1277 82.0552 57.1146 82.0657 57.1009C82.016 57.1663 81.9657 57.231 81.916 57.2957Z" fill="#282727"/>
<path d="M211.135 145.08C211.287 145.203 211.437 145.329 211.59 145.452C211.731 145.567 211.865 145.644 212.054 145.644C212.227 145.644 212.395 145.575 212.518 145.452C212.629 145.342 212.697 145.193 212.709 145.037C212.943 145.087 213.175 145.152 213.403 145.226C213.351 145.303 213.303 145.384 213.248 145.459C213.152 145.578 213.054 145.697 212.943 145.801C212.824 145.914 212.702 146.021 212.576 146.127C212.348 146.285 212.117 146.433 211.873 146.568C211.653 146.689 211.427 146.794 211.198 146.897C210.742 147.064 210.287 147.203 209.808 147.282C209.553 147.31 209.3 147.321 209.044 147.302C208.915 147.276 208.791 147.241 208.666 147.196C208.493 147.113 208.33 147.019 208.174 146.909C208.094 146.841 208.022 146.77 207.954 146.693C207.928 146.653 207.906 146.613 207.884 146.572C207.872 146.534 207.862 146.496 207.854 146.458C207.853 146.441 207.853 146.424 207.854 146.406C207.862 146.368 207.872 146.331 207.884 146.294C207.911 146.242 207.94 146.193 207.973 146.144C208.064 146.042 208.162 145.949 208.268 145.861C208.452 145.729 208.642 145.612 208.847 145.517C209.219 145.38 209.602 145.311 209.989 145.237C210.18 145.201 210.312 145.05 210.378 144.874C210.517 144.87 210.655 144.863 210.795 144.863C210.911 144.93 211.025 145.002 211.135 145.08ZM205.067 150.403C205.103 150.466 205.156 150.519 205.198 150.579C205.207 150.622 205.214 150.667 205.224 150.71C205.356 151.273 205.609 151.815 205.975 152.264C206.178 152.513 206.407 152.723 206.67 152.91C206.962 153.118 207.275 153.261 207.618 153.371C207.928 153.471 208.265 153.497 208.589 153.528C208.891 153.557 209.2 153.548 209.502 153.532C209.784 153.518 210.064 153.477 210.345 153.442C211.306 153.324 212.237 153.017 213.114 152.608C213.343 152.501 213.567 152.391 213.788 152.268C214.173 152.053 214.523 151.784 214.865 151.51C215.188 151.25 215.473 150.955 215.737 150.638C216.031 150.287 216.287 149.913 216.492 149.506C216.698 149.096 216.84 148.67 216.906 148.217C216.938 147.988 216.961 147.763 216.966 147.532C216.974 147.255 216.924 146.977 216.885 146.704C216.823 146.277 216.67 145.871 216.494 145.479C216.413 145.297 216.326 145.121 216.224 144.95C216.107 144.746 215.954 144.563 215.806 144.381C215.737 144.296 215.654 144.224 215.567 144.156C215.597 144.032 215.598 143.907 215.564 143.782C215.513 143.596 215.388 143.434 215.222 143.336C215.11 143.271 214.978 143.238 214.846 143.238C214.635 143.238 214.428 143.325 214.29 143.484C213.986 143.371 213.679 143.27 213.36 143.197C212.863 143.083 212.346 143.031 211.837 143.005C211.782 143.001 211.727 143 211.672 143C211.549 143 211.425 143.006 211.302 143.006C210.958 143.007 210.601 143.054 210.263 143.112C210.08 143.144 209.9 143.18 209.721 143.218C209.625 143.216 209.528 143.22 209.431 143.23C208.862 143.294 208.344 143.542 207.859 143.835C207.364 144.134 206.911 144.513 206.531 144.948C206.354 145.15 206.193 145.369 206.051 145.596C205.9 145.839 205.8 146.12 205.692 146.383C205.656 146.47 205.63 146.561 205.599 146.65C205.364 146.698 205.143 146.807 204.976 146.994C204.811 147.176 204.655 147.363 204.599 147.612C204.558 147.792 204.533 147.974 204.528 148.159C204.518 148.548 204.57 148.93 204.632 149.314C204.694 149.695 204.876 150.072 205.067 150.403Z" fill="#0063FF"/>
<path d="M122.486 162.953C122.641 162.981 122.79 163.019 122.938 163.07C123.025 163.116 123.109 163.165 123.191 163.219C123.312 163.324 123.422 163.437 123.526 163.558C123.601 163.665 123.661 163.78 123.724 163.894C123.721 163.906 123.72 163.919 123.716 163.931C123.65 164.176 123.569 164.414 123.478 164.651C123.284 165.06 123.069 165.45 122.802 165.816C122.646 166.006 122.47 166.176 122.287 166.338C122.089 166.467 121.891 166.598 121.687 166.72C121.633 166.747 121.585 166.784 121.529 166.81C121.229 166.922 120.921 166.999 120.605 167.052C120.125 167.101 119.643 167.097 119.164 167.044C118.849 166.99 118.547 166.907 118.247 166.794C118.086 166.718 117.935 166.631 117.788 166.53C117.72 166.47 117.658 166.409 117.597 166.342C117.571 166.301 117.548 166.261 117.526 166.218C117.507 166.158 117.492 166.098 117.479 166.038C117.474 165.949 117.476 165.862 117.483 165.773C117.515 165.619 117.56 165.472 117.616 165.324C117.696 165.158 117.795 165.005 117.896 164.852C118.024 164.705 118.158 164.56 118.301 164.429C118.449 164.295 118.599 164.169 118.754 164.045C119.041 163.844 119.339 163.674 119.657 163.529C120.274 163.291 120.926 163.177 121.574 163.055C121.664 163.038 121.736 162.991 121.802 162.934C122.029 162.93 122.257 162.931 122.486 162.953ZM114.318 170.42C114.376 170.549 114.438 170.67 114.516 170.787C114.612 170.932 114.745 171.108 114.906 171.191C114.997 171.24 115.093 171.283 115.191 171.32C115.339 171.359 115.486 171.359 115.633 171.32C115.755 171.299 115.856 171.25 115.949 171.187C116.565 172.119 117.529 172.802 118.576 173.171C118.846 173.266 119.147 173.297 119.429 173.319C119.73 173.342 120.05 173.298 120.348 173.249C120.606 173.206 120.857 173.151 121.106 173.071C121.437 172.965 121.755 172.804 122.056 172.633C122.644 172.302 123.165 171.863 123.659 171.408C123.957 171.134 124.212 170.808 124.471 170.5C124.646 170.29 124.806 170.063 124.974 169.846C125.096 169.687 125.215 169.51 125.32 169.338C125.541 168.973 125.765 168.612 125.957 168.23C126.309 167.534 126.658 166.818 126.788 166.043C126.921 165.252 126.884 164.461 126.715 163.68C126.669 163.464 126.598 163.257 126.513 163.055C126.389 162.762 126.26 162.495 126.073 162.237C125.904 162.008 125.728 161.814 125.505 161.641C125.258 161.448 125.017 161.286 124.733 161.155C124.183 160.9 123.59 160.74 122.995 160.632C122.599 160.561 122.204 160.494 121.804 160.459C121.649 160.445 121.493 160.438 121.336 160.438C120.797 160.438 120.252 160.515 119.732 160.631C118.422 160.923 117.413 161.85 116.584 162.856C116.441 163.031 116.344 163.202 116.344 163.437C116.344 163.483 116.363 163.526 116.371 163.571C116.149 163.831 115.934 164.097 115.731 164.373C115.513 164.669 115.318 164.98 115.133 165.298C114.985 165.556 114.84 165.821 114.723 166.095C114.552 166.494 114.379 166.89 114.247 167.305C114.023 168.011 113.942 168.758 114.042 169.491C114.087 169.818 114.182 170.121 114.318 170.42Z" fill="#0063FF"/>
<path d="M127.5 227.5C178.5 155.5 228 199.5 228 199.5" stroke="#0063FF" stroke-width="6"/>
<path opacity="0.1" d="M96.1228 140.397C82.0728 151.022 70.3045 163.895 65.961 179.513C60.4863 199.2 66.932 220.584 79.6118 236.545C103.046 266.044 148.172 277.262 184.245 262.558C220.652 247.719 241.605 208.11 246.329 171.992C248.277 157.099 246.155 141.349 237.716 128.925C227.501 113.886 208.892 105.349 190.142 104.161C171.393 102.973 152.577 108.46 135.741 116.865C123.175 123.138 108.73 130.862 96.1228 140.397Z" fill="#0063FF"/>
</g>
<defs>
<clipPath id="clip0_270_143">
<rect width="286" height="347" fill="white"/>
</clipPath>
</defs>
</svg>
