<svg id="pinterest_1_" data-name="pinterest (1)" xmlns="http://www.w3.org/2000/svg" width="25.438" height="25.438" viewBox="0 0 25.438 25.438">
  <path id="Path_32976" data-name="Path 32976" d="M12.719,0A12.719,12.719,0,1,1,0,12.719,12.719,12.719,0,0,1,12.719,0Z" fill="#c8232c"/>
  <path id="Path_32977" data-name="Path 32977" d="M79.616,63.781c-4.482,0-6.74,3.111-6.74,5.705a3.5,3.5,0,0,0,1.932,3.489.327.327,0,0,0,.472-.228l.192-.734a.433.433,0,0,0-.135-.509,2.576,2.576,0,0,1-.622-1.791,4.4,4.4,0,0,1,4.643-4.374c2.533,0,3.925,1.5,3.925,3.5,0,2.633-1.2,4.855-2.99,4.855a1.427,1.427,0,0,1-1.488-1.76,19.1,19.1,0,0,0,.833-3.24,1.239,1.239,0,0,0-1.273-1.371c-1.009,0-1.819,1.01-1.819,2.364a3.416,3.416,0,0,0,.3,1.445l-1.214,4.977a9.942,9.942,0,0,0-.028,3.47.127.127,0,0,0,.224.052,9.68,9.68,0,0,0,1.7-2.99c.116-.406.664-2.51.664-2.51a2.726,2.726,0,0,0,2.3,1.139c3.031,0,5.088-2.676,5.088-6.258C85.587,66.3,83.218,63.781,79.616,63.781Z" transform="translate(-66.513 -58.212)" fill="#fff"/>
</svg>
